<svg xmlns="http://www.w3.org/2000/svg" xmlns:xlink="http://www.w3.org/1999/xlink" id="Capa_2" data-name="Capa 2" viewBox="0 0 512 512"><defs><style>      .cls-1 {        fill: none;      }      .cls-2 {        fill: #fff;      }      .cls-3 {        clip-path: url(#clippath);      }    </style><clipPath id="clippath"><rect class="cls-1" width="512" height="512" rx="111.66" ry="111.66"></rect></clipPath></defs><g id="Capa_1-2" data-name="Capa 1"><g class="cls-3"><rect width="512" height="512" rx="111.66" ry="111.66"></rect><path class="cls-2" d="M82.24,61.53h26.34l179.57,392.74h-32.32l-59.26-129.44H-6.35l-59.25,129.44h-32.92L82.24,61.53ZM188.18,301.59L95.41,95.82.84,301.59h187.35Z"></path><path class="cls-2" d="M511.22,409.58c-16.76,12.54-35.22,22.32-55.37,29.32-20.15,7.01-41.6,10.51-64.34,10.51-29.53,0-56.47-5.71-80.8-17.15-24.34-11.43-45.29-26.36-62.85-44.81-17.56-18.43-31.12-39.64-40.7-63.61-9.58-23.97-14.37-48.49-14.37-73.57s5.09-51.25,15.26-75.23c10.18-23.97,24.14-45.17,41.9-63.61,17.75-18.44,38.8-33.09,63.15-43.97,24.34-10.87,50.67-16.32,79.01-16.32s56.56,5.81,81.1,17.42c24.54,11.62,45.49,26.83,62.85,45.63,17.36,18.81,30.82,40.1,40.4,63.89s14.37,47.85,14.37,72.19c0,27.66-5.49,53.85-16.46,78.55-10.98,24.71-26.04,46.46-45.19,65.27l47.29,52.55h-31.72l-33.52-37.06ZM392.11,423.41c19.95,0,38.31-3.04,55.06-9.13,16.76-6.08,31.92-14.47,45.49-25.17l-50.28-56.42h31.72l35.91,40.38c15.96-16.59,28.22-35.58,36.81-56.97,8.58-21.38,12.87-43.33,12.87-65.83s-4.19-44.16-12.57-64.99c-8.38-20.83-20.05-39.27-35.01-55.32-14.96-16.04-32.62-28.85-52.97-38.44-20.35-9.59-42.7-14.38-67.04-14.38-25.54,0-48.69,4.98-69.43,14.94-20.75,9.96-38.51,23.15-53.27,39.55-14.77,16.41-26.14,34.94-34.12,55.59-7.99,20.66-11.97,41.68-11.97,63.06,0,22.5,4.09,44.17,12.27,64.99,8.17,20.84,19.75,39.27,34.71,55.32,14.96,16.04,32.82,28.86,53.57,38.44,20.74,9.59,43.49,14.38,68.24,14.38Z"></path></g></g></svg>