<svg xmlns="http://www.w3.org/2000/svg" id="Capa_2" data-name="Capa 2" viewBox="0 0 832.31 156.89"><g id="Capa_1-2" data-name="Capa 1"><g><path d="M71.21,1.09h10.37l70.74,154.71h-12.73l-23.34-50.99H36.31l-23.34,50.99H0L71.21,1.09ZM112.94,95.66L76.39,14.6l-37.25,81.06h73.8Z"></path><path d="M196.64,155.8V1.09h108.93v10.02h-96.91v61.45h82.29v9.59h-82.29v73.65h-12.03Z"></path><path d="M385.03,1.09h10.37l70.74,154.71h-12.73l-23.34-50.99h-79.93l-23.34,50.99h-12.97L385.03,1.09ZM426.76,95.66l-36.55-81.06-37.25,81.06h73.8Z"></path><path d="M515.18,155.8V1.09h69.56c7.07,0,13.59,1.38,19.57,4.14,5.97,2.76,11.12,6.43,15.44,11,4.32,4.58,7.7,9.73,10.14,15.47,2.43,5.74,3.65,11.51,3.65,17.32s-.94,11.15-2.83,16.45c-1.89,5.3-4.56,10.06-8.02,14.27-3.46,4.21-7.63,7.7-12.5,10.46-4.87,2.76-10.22,4.58-16.03,5.45l41.73,60.14h-13.91l-40.56-58.4h-54.23v58.4h-12.03ZM527.21,87.16h58.71c5.34,0,10.22-1.09,14.62-3.27,4.4-2.18,8.17-5.05,11.32-8.61,3.14-3.56,5.54-7.63,7.19-12.2,1.65-4.58,2.48-9.26,2.48-14.05s-.98-9.7-2.95-14.27c-1.97-4.58-4.64-8.61-8.02-12.09-3.38-3.49-7.31-6.28-11.79-8.39-4.48-2.1-9.31-3.16-14.5-3.16h-57.06v76.05Z"></path><path d="M800.95,141.2c-6.6,4.94-13.88,8.79-21.81,11.55-7.94,2.76-16.39,4.14-25.35,4.14-11.63,0-22.24-2.25-31.83-6.75-9.59-4.5-17.84-10.38-24.76-17.65-6.92-7.26-12.26-15.61-16.03-25.06-3.77-9.44-5.66-19.1-5.66-28.98s2-20.19,6.01-29.63c4.01-9.44,9.51-17.79,16.5-25.06,6.99-7.26,15.29-13.04,24.88-17.32,9.59-4.28,19.96-6.43,31.12-6.43s22.28,2.29,31.95,6.86,17.92,10.57,24.76,17.98c6.84,7.41,12.14,15.8,15.92,25.17s5.66,18.85,5.66,28.44c0,10.9-2.16,21.21-6.48,30.94-4.33,9.73-10.26,18.3-17.8,25.71l18.63,20.7h-12.5l-13.2-14.6ZM754.03,146.65c7.86,0,15.09-1.2,21.69-3.6,6.6-2.4,12.57-5.7,17.92-9.91l-19.81-22.23h12.5l14.15,15.91c6.29-6.54,11.12-14.02,14.5-22.44,3.38-8.42,5.07-17.07,5.07-25.93s-1.65-17.39-4.95-25.6c-3.3-8.21-7.9-15.47-13.79-21.79-5.89-6.32-12.85-11.36-20.87-15.14-8.02-3.78-16.82-5.67-26.41-5.67-10.06,0-19.18,1.96-27.35,5.88-8.17,3.92-15.17,9.12-20.98,15.58-5.82,6.47-10.3,13.77-13.44,21.9-3.15,8.14-4.72,16.42-4.72,24.84,0,8.86,1.61,17.4,4.83,25.6,3.22,8.21,7.78,15.47,13.67,21.79s12.93,11.37,21.1,15.14c8.17,3.78,17.13,5.67,26.88,5.67Z"></path></g></g></svg>